<svg xmlns="http://www.w3.org/2000/svg" viewBox="0 0 56 64"><title>ai</title><g class="nc-icon-wrapper"><path d="M5.1 0C2.3 0 0 2.3 0 5.1v53.8C0 61.7 2.3 64 5.1 64h45.8c2.7 0 5-2.3 5-5.1V20.3L37 0H5.1z" fill-rule="evenodd" clip-rule="evenodd" fill="#FFC35E"/><path d="M55.9 20.4v1H43.1s-6.3-1.3-6.1-6.8c0 0 .2 5.8 6 5.8h12.9z" fill-rule="evenodd" clip-rule="evenodd" fill="#FFB446"/><path d="M37 0v14.6c0 1.6 1.1 5.8 6.1 5.8h12.8L37 0z" opacity=".5" fill-rule="evenodd" clip-rule="evenodd" fill="#fff"/><path d="M20.1 53.9c-.3 0-.6-.2-.7-.5l-.9-2.2h-6l-.9 2.2c-.1.3-.4.5-.7.5-.4 0-.8-.4-.8-.8 0-.1 0-.2.1-.3l4.1-10.3c.2-.5.7-.8 1.2-.8.6 0 1 .3 1.2.8l4.2 10.3v.3c0 .4-.3.8-.8.8zm-4.6-10.5L13 49.8h5.1l-2.6-6.4zM24 53.9c-.4 0-.7-.3-.7-.7V42.4c0-.4.3-.7.8-.7.4 0 .7.3.7.7v10.8c0 .4-.3.7-.8.7z" fill="#fff"/></g></svg>