<svg xmlns="http://www.w3.org/2000/svg" viewBox="0 0 56 64"><title>attachment</title><g class="nc-icon-wrapper"><g fill-rule="evenodd" clip-rule="evenodd"><path d="M5.1 0C2.3 0 0 2.2 0 5v53.9C0 61.7 2.3 64 5.1 64h45.8c2.8 0 5.1-2.3 5.1-5.1V20.3L37.1 0h-32z" fill="#8199AF"/><path d="M56 20.4v1H43.2s-6.3-1.3-6.2-6.8c0 0 .3 5.8 6.1 5.8H56z" fill="#617F9B"/><path d="M37.1 0v14.6c0 1.6 1.1 5.8 6.1 5.8H56L37.1 0z" opacity=".5" fill="#fff"/></g><path d="M26.6 41.5c1.1-1.2 1.1-3 0-4.2s-3-1.1-4.1 0l-9.2 9.2c-1.1 1.1-1.1 3 0 4.1s3 1.2 4.1 0l5.7-5.6c.3-.3.3-.8 0-1.1s-.9-.4-1.2 0l-3.6 3.5c-.5.5-1.2.5-1.7 0s-.5-1.3 0-1.8l3.5-3.5c1.3-1.3 3.4-1.3 4.7 0 1.3 1.3 1.3 3.4 0 4.7l-5.6 5.6c-2.1 2.1-5.5 2.1-7.7 0-2.1-2.1-2.1-5.5 0-7.6l9.2-9.2c2.1-2.1 5.6-2.1 7.7 0 2.1 2.1 2.1 5.5 0 7.6l-.9.9c-.1-.9-.4-1.8-1-2.6h.1z" fill="#fff"/></g></svg>