<svg xmlns="http://www.w3.org/2000/svg" viewBox="0 0 56 64"><title>audio</title><g class="nc-icon-wrapper"><g fill-rule="evenodd" clip-rule="evenodd"><path d="M5.2 0C2.4 0 .1 2.3.1 5.1v53.8c0 2.8 2.3 5.1 5.1 5.1h45.7c2.8 0 5.1-2.3 5.1-5.1V20.3L37.1 0H5.2z" fill="#379FD3"/><path d="M56 20.4v1H43.2s-6.3-1.3-6.1-6.8c0 0 .2 5.8 6 5.8H56z" fill="#2987C8"/><path d="M37.1 0v14.6c0 1.6 1.1 5.8 6.1 5.8H56L37.1 0z" opacity=".5" fill="#fff"/><path d="M29.8 34l-14.2 1.9v13.4c-.7-.2-1.6-.3-2.5-.1-2 .4-3.3 1.7-2.9 2.9.4 1.3 2.3 1.9 4.3 1.5 1.8-.3 3-1.4 3-2.5V40.4l10.4-1.3v8.3c-.7-.2-1.6-.2-2.5 0-2.1.4-3.4 1.7-3 2.9.4 1.2 2.3 1.9 4.4 1.5 1.8-.4 3.1-1.5 3-2.6V34z" fill="#fff"/></g></g></svg>