<svg xmlns="http://www.w3.org/2000/svg" viewBox="0 0 56 64"><title>csv</title><g class="nc-icon-wrapper"><path d="M5.1 0C2.3 0 0 2.3 0 5.1v53.8C0 61.7 2.3 64 5.1 64h45.8c2.8 0 5.1-2.3 5.1-5.1V20.3L37 0H5.1z" fill-rule="evenodd" clip-rule="evenodd" fill="#45B058"/><path d="M20.3 43.2c.1.1.2.3.2.5 0 .4-.3.7-.7.7-.2 0-.4 0-.5-.2-.7-.8-1.9-1.4-3-1.4-2.6 0-4.6 2-4.6 4.9 0 2.8 2 4.9 4.6 4.9 1.1 0 2.2-.5 3-1.4.1-.1.3-.2.5-.2.4 0 .7.3.7.7 0 .2-.1.4-.2.5-.9 1-2.2 1.7-4 1.7-3.5 0-6.2-2.5-6.2-6.2s2.7-6.2 6.2-6.2c1.8 0 3.1.7 4 1.7zm6.8 10.7c-1.8 0-3.2-.6-4.2-1.5-.2-.1-.2-.3-.2-.5 0-.4.2-.8.7-.8.1 0 .3.1.4.2.8.7 2 1.3 3.4 1.3 2.1 0 2.8-1.2 2.8-2.1 0-3.1-7.1-1.4-7.1-5.7 0-1.9 1.7-3.3 4.1-3.3 1.5 0 2.9.5 3.9 1.3.1.1.2.3.2.5 0 .4-.3.7-.7.7-.1 0-.3 0-.4-.1-.9-.7-2-1.1-3.1-1.1-1.5 0-2.5.8-2.5 1.9 0 2.7 7.1 1.2 7.1 5.7 0 1.7-1.2 3.5-4.4 3.5zm17-11.2L39.9 53c-.2.5-.6.8-1.1.8h-.1c-.5 0-1-.3-1.2-.8l-4.1-10.3c-.1-.1-.1-.2-.1-.3 0-.4.3-.8.8-.8.3 0 .6.2.7.5l3.9 10 3.9-10c.1-.3.4-.5.7-.5.5 0 .9.4.9.8 0 .1-.1.2-.1.3z" fill="#fff"/><g fill-rule="evenodd" clip-rule="evenodd"><path d="M56 20.4v1H43.2s-6.3-1.3-6.1-6.8c0 0 .2 5.8 6 5.8H56z" fill="#349C42"/><path d="M37.1 0v14.6c0 1.6 1.1 5.8 6.1 5.8H56L37.1 0z" opacity=".5" fill="#fff"/></g></g></svg>