<svg xmlns="http://www.w3.org/2000/svg" viewBox="0 0 56 64"><title>excel</title><g class="nc-icon-wrapper"><path d="M5.1 0C2.3 0 0 2.3 0 5.1v53.8C0 61.7 2.3 64 5.1 64h45.8c2.8 0 5.1-2.3 5.1-5.1V20.3L37.1 0h-32z" fill-rule="evenodd" clip-rule="evenodd" fill="#45B058"/><path d="M19.4 53.9c-.2 0-.4-.1-.5-.2l-3.7-5-3.8 5c-.1.1-.3.2-.5.2-.4 0-.7-.3-.7-.7 0-.1 0-.3.1-.4l3.9-5.1-3.6-4.9c-.1-.1-.2-.2-.2-.4 0-.3.3-.7.7-.7.3 0 .5.1.6.3l3.5 4.6 3.4-4.6c.1-.2.3-.3.5-.3.4 0 .8.3.8.7 0 .2-.1.3-.1.4l-3.7 4.8 3.9 5.2c.1.1.2.3.2.4 0 .4-.4.7-.8.7zm10-.1H24c-.6 0-1.1-.5-1.1-1.1V42.4c0-.4.3-.7.8-.7.4 0 .7.3.7.7v10.1h5c.4 0 .7.3.7.6 0 .4-.3.7-.7.7zm7 .2c-1.8 0-3.2-.6-4.2-1.5-.2-.1-.2-.3-.2-.5 0-.4.2-.8.7-.8.1 0 .3.1.4.2.8.7 2 1.3 3.4 1.3 2.1 0 2.8-1.2 2.8-2.1 0-3.1-7.1-1.4-7.1-5.6 0-2 1.7-3.4 4.1-3.4 1.5 0 2.9.5 3.8 1.3.2.1.3.3.3.5 0 .4-.3.8-.7.8-.1 0-.3-.1-.4-.2-.9-.7-2-1-3.1-1-1.5 0-2.5.7-2.5 1.9 0 2.7 7.1 1.1 7.1 5.6 0 1.7-1.2 3.5-4.4 3.5z" fill="#fff"/><path d="M56 20.4v1H43.2s-6.4-1.3-6.2-6.8c0 0 .2 5.8 6 5.8h13z" fill-rule="evenodd" clip-rule="evenodd" fill="#349C42"/><path d="M37 0v14.6c0 1.6 1.2 5.8 6.2 5.8H56L37 0z" opacity=".5" fill-rule="evenodd" clip-rule="evenodd" fill="#fff"/></g></svg>