<svg xmlns="http://www.w3.org/2000/svg" viewBox="0 0 56 64"><title>folder</title><g class="nc-icon-wrapper"><path d="M51.5 15.5A4.5 4.5 0 0 1 56 20v31a4.5 4.5 0 0 1-4.5 4.5h-47A4.5 4.5 0 0 1 0 51V13a4.5 4.5 0 0 1 4.5-4.5H16c3.8 0 4.2 1.2 6.7 4.5 2.1 2.7 7.2 2.5 10.4 2.5z" fill="#003462"/><path d="M51.5 18.1H9.2a4.5 4.5 0 0 0-4.5 4.5v2.9L9.2 19h42.3l4.5 6.5v-2.9a4.5 4.5 0 0 0-4.5-4.5z" fill="#87c8f2"/><path d="M4.6 55.5h46.9A4.5 4.5 0 0 0 56 51V23.5a4.5 4.5 0 0 0-4.5-4.5H9.3a4.5 4.5 0 0 0-4.6 4.5V51a4.7 4.7 0 0 1 0 .7 2.3 2.3 0 0 1-4.6 0 4.5 4.5 0 0 0 4.5 3.8z" fill="#00a1e0"/></g></svg>