<svg xmlns="http://www.w3.org/2000/svg" viewBox="0 0 56 64"><title>gdoc</title><g class="nc-icon-wrapper"><path d="M5.1 0C2.3 0 0 2.3 0 5.1v53.8C0 61.7 2.3 64 5.1 64h45.8c2.8 0 5.1-2.3 5.1-5.1V20.3L37.1 0h-32z" fill-rule="evenodd" clip-rule="evenodd" fill="#3C8CEA"/><path d="M10.1 37.4h21.6v2.1H10.1zm0 4.8h21.6v2.1H10.1zm0 4.8h21.6v2.1H10.1zm0 4.8h12.3v2.1H10.1z" fill="#fff"/><g fill-rule="evenodd" clip-rule="evenodd"><path d="M56 20.4v1H43.2s-6.4-1.3-6.2-6.7c0 0 .2 5.7 6 5.7h13z" fill="#2D6FE4"/><path d="M37.1 0v14.6c0 1.6 1.1 5.8 6.1 5.8H56L37.1 0z" opacity=".5" fill="#fff"/></g></g></svg>