<svg xmlns="http://www.w3.org/2000/svg" viewBox="0 0 56 64"><title>gpres</title><g class="nc-icon-wrapper"><path d="M5.1 0C2.3 0 0 2.3 0 5.1v53.8C0 61.7 2.3 64 5.1 64h45.8c2.8 0 5.1-2.3 5.1-5.1V20.3L37.1 0h-32z" fill-rule="evenodd" clip-rule="evenodd" fill="#F8BE46"/><path d="M10.1 37.5v11.9h12.4V37.5H10.1zm11.3 9.6H11.3v-7.4h10.1v7.4zm.7-5.1v2.2h8.4v7.4H20.3v-2.8h-1.1v5.1h12.4V42h-9.5z" fill="#fff"/><g fill-rule="evenodd" clip-rule="evenodd"><path d="M56 20.4v1H43.2s-6.4-1.3-6.2-6.7c0 0 .2 5.7 6 5.7h13z" fill="#F6AD34"/><path d="M37.1 0v14.6c0 1.6 1.1 5.8 6.1 5.8H56L37.1 0z" opacity=".5" fill="#fff"/></g></g></svg>