<svg xmlns="http://www.w3.org/2000/svg" viewBox="0 0 56 64"><title>gsheet</title><g class="nc-icon-wrapper"><path d="M5.1 0c-2.8 0-5 2.3-5 5.1v53.8c0 2.8 2.2 5.1 5 5.1h45.8c2.8 0 5.1-2.3 5.1-5.1V20.3L37.1 0h-32z" fill-rule="evenodd" clip-rule="evenodd" fill="#20A971"/><path d="M10.1 37.5v16.4h21.5V37.5H10.1zm6.5 15h-5V49h5v3.5zm0-5h-5V44h5v3.5zm0-5h-5v-3.6h5v3.6zm13.6 10H18V49h12.2v3.5zm0-5H18V44h12.2v3.5zm0-5H18v-3.6h12.2v3.6z" fill="#fff"/><g fill-rule="evenodd" clip-rule="evenodd"><path d="M56 20.3v1H43.2s-6.3-1.2-6.1-6.7c0 0 .2 5.7 6 5.7H56z" fill="#189355"/><path d="M37.1 0v14.5c0 1.7 1.1 5.8 6.1 5.8H56L37.1 0z" opacity=".5" fill="#fff"/></g></g></svg>