<svg xmlns="http://www.w3.org/2000/svg" viewBox="0 0 56 64"><title>ppt</title><g class="nc-icon-wrapper"><path d="M5.1 0C2.3 0 0 2.3 0 5.1v53.8C0 61.7 2.3 64 5.1 64h45.8c2.8 0 5.1-2.3 5.1-5.1V20.3L37.1 0h-32z" fill-rule="evenodd" clip-rule="evenodd" fill="#E34221"/><g fill-rule="evenodd" clip-rule="evenodd"><path d="M56 20.4v1H43.2s-6.3-1.3-6.2-6.8c0 0 .3 5.8 6.1 5.8H56z" fill="#DC3119"/><path d="M37.1 0v14.6c0 1.6 1.1 5.8 6.1 5.8H56L37.1 0z" opacity=".5" fill="#fff"/></g><path d="M15 49h-3.4v4.2c0 .4-.3.7-.7.7-.4 0-.8-.3-.8-.7V42.9c0-.6.5-1.1 1.1-1.1H15c2.4 0 3.7 1.6 3.7 3.6S17.3 49 15 49zm-.2-5.9h-3.2v4.6h3.2c1.4 0 2.4-1 2.4-2.3 0-1.4-1-2.3-2.4-2.3zM26 49h-3.4v4.2c0 .4-.3.7-.7.7-.4 0-.7-.3-.7-.7V42.9c0-.6.4-1.1 1-1.1H26c2.4 0 3.7 1.6 3.7 3.6S28.4 49 26 49zm-.2-5.9h-3.1v4.6h3.1c1.4 0 2.4-1 2.4-2.3 0-1.4-1-2.3-2.4-2.3zm14.1 0h-3.3v10.1c0 .4-.3.7-.7.7-.4 0-.8-.3-.8-.7V43.1h-3.2c-.4 0-.7-.3-.7-.7 0-.3.3-.6.7-.6h8c.4 0 .7.3.7.7 0 .3-.3.6-.7.6z" fill="#fff"/></g></svg>