<svg xmlns="http://www.w3.org/2000/svg" viewBox="0 0 56 64"><title>txt</title><g class="nc-icon-wrapper"><path d="M5.2 0C2.4 0 .1 2.2.1 5v53.9c0 2.8 2.2 5.1 5.1 5.1h45.7c2.8 0 5.1-2.3 5.1-5.1V20.3L37.1 0H5.2z" fill-rule="evenodd" clip-rule="evenodd" fill="#F9CA06"/><g fill-rule="evenodd" clip-rule="evenodd"><path d="M56 20.3v1H43.2s-6.3-1.2-6.1-6.7c0 0 .2 5.7 6 5.7H56z" fill="#F7BC04"/><path d="M37.1 0v14.5c0 1.7 1.1 5.8 6.1 5.8H56L37.1 0z" opacity=".5" fill="#fff"/></g><path d="M18.8 43h-3.3v10.1c0 .4-.3.7-.8.7-.4 0-.7-.3-.7-.7V43h-3.3c-.3 0-.6-.2-.6-.6 0-.4.3-.7.6-.7h8.1c.3 0 .6.3.6.7 0 .4-.3.6-.6.6zm11.7 10.8c-.3 0-.5 0-.6-.2l-3.7-5-3.8 5c-.1.2-.3.2-.5.2-.4 0-.7-.3-.7-.7 0-.1 0-.3.1-.4l3.9-5.1-3.6-4.9c-.1-.1-.1-.2-.1-.4 0-.3.2-.7.7-.7.2 0 .4.1.6.3l3.4 4.6 3.4-4.6c.2-.2.4-.3.6-.3.4 0 .7.3.7.7 0 .2 0 .3-.1.4l-3.6 4.8 3.9 5.2c0 .1.1.3.1.4 0 .4-.3.7-.7.7zM41.7 43h-3.3v10.1c0 .4-.3.7-.8.7-.4 0-.7-.3-.7-.7V43h-3.3c-.3 0-.6-.2-.6-.6 0-.4.3-.7.6-.7h8.1c.3 0 .6.3.6.7 0 .4-.3.6-.6.6z" fill="#fff"/></g></svg>