<svg xmlns="http://www.w3.org/2000/svg" viewBox="0 0 56 64"><title>word</title><g class="nc-icon-wrapper"><path d="M5.1 0C2.3 0 0 2.2 0 5v53.9C0 61.7 2.3 64 5.1 64h45.8c2.8 0 5.1-2.3 5.1-5.1V20.3L37.1 0h-32z" fill-rule="evenodd" clip-rule="evenodd" fill="#14A9DA"/><g fill-rule="evenodd" clip-rule="evenodd"><path d="M56 20.4v1H43.2s-6.3-1.3-6.2-6.8c0 0 .3 5.8 6.1 5.8H56z" fill="#0F93D0"/><path d="M37.1 0v14.6c0 1.6 1.1 5.8 6.1 5.8H56L37.1 0z" opacity=".5" fill="#fff"/></g><path d="M14.2 53.9h-3c-.6 0-1.1-.5-1.1-1.1v-9.9c0-.6.5-1 1.1-1h3c3.8 0 6.2 2.6 6.2 6s-2.4 6-6.2 6zm0-10.7h-2.6v9.3h2.6c3 0 4.7-2.1 4.7-4.6 0-2.6-1.7-4.7-4.7-4.7zm14.5 10.9c-3.6 0-6-2.7-6-6.2s2.4-6.2 6-6.2c3.5 0 5.9 2.6 5.9 6.2 0 3.5-2.4 6.2-5.9 6.2zm0-11.1c-2.7 0-4.4 2.1-4.4 4.9 0 2.8 1.7 4.8 4.4 4.8 2.6 0 4.4-2 4.4-4.8S31.3 43 28.7 43zm18.4.4c.1.1.2.3.2.5 0 .4-.3.7-.7.7-.2 0-.4-.1-.5-.2-.7-.9-1.9-1.4-3-1.4-2.6 0-4.6 2-4.6 4.9 0 2.8 2 4.8 4.6 4.8 1.1 0 2.2-.4 3-1.3.1-.2.3-.3.5-.3.4 0 .7.4.7.8 0 .2-.1.3-.2.5-.9 1-2.2 1.7-4 1.7-3.5 0-6.2-2.5-6.2-6.2s2.7-6.2 6.2-6.2c1.8 0 3.1.7 4 1.7z" fill="#fff"/></g></svg>