<svg xmlns="http://www.w3.org/2000/svg" viewBox="0 0 56 64"><title>xml</title><g class="nc-icon-wrapper"><path d="M5.1 0C2.3 0 0 2.2 0 5v53.9C0 61.7 2.3 64 5.1 64h45.8c2.8 0 5.1-2.3 5.1-5.1V20.3L37.1 0h-32z" fill-rule="evenodd" clip-rule="evenodd" fill="#FC7B24"/><g fill-rule="evenodd" clip-rule="evenodd"><path d="M56 20.4v1H43.2s-6.3-1.3-6.2-6.8c0 0 .3 5.8 6.1 5.8H56z" fill="#FB5C1B"/><path d="M37.1 0v14.6c0 1.6 1.1 5.8 6.1 5.8H56L37.1 0z" opacity=".5" fill="#fff"/></g><path d="M19.4 53.8c-.2 0-.4 0-.6-.2l-3.7-5-3.7 5c-.2.2-.4.2-.6.2-.4 0-.7-.3-.7-.7 0-.1 0-.3.1-.4l3.9-5.1-3.6-4.9c-.1-.1-.1-.2-.1-.4 0-.3.3-.7.7-.7.2 0 .4.1.6.3l3.4 4.6 3.4-4.6c.2-.2.4-.3.6-.3.4 0 .7.3.7.7 0 .2 0 .3-.1.4l-3.6 4.8 3.9 5.2c.1.1.1.3.1.4 0 .4-.3.7-.7.7zm14.4 0c-.4 0-.7-.3-.7-.7v-9.3l-4 9.8c-.1.1-.2.2-.4.2s-.3-.1-.4-.2l-4-9.8v9.3c0 .4-.3.7-.7.7-.5 0-.8-.3-.8-.7V42.8c0-.6.6-1.2 1.3-1.2.5 0 1 .3 1.2.8l3.4 8.4 3.4-8.4c.2-.5.7-.8 1.2-.8.7 0 1.3.6 1.3 1.2v10.3c0 .4-.3.7-.8.7zm10.6-.1h-5.5c-.6 0-1.1-.5-1.1-1.1V42.3c0-.4.4-.7.8-.7s.7.3.7.7v10.1h5.1c.3 0 .6.3.6.6 0 .4-.3.7-.6.7z" fill="#fff"/></g></svg>