<svg xmlns="http://www.w3.org/2000/svg" viewBox="0 0 56 64"><title>zip 2</title><g class="nc-icon-wrapper"><path d="M5.1 0C2.3 0 0 2.2 0 5v53.9C0 61.7 2.3 64 5.1 64h45.8c2.8 0 5.1-2.3 5.1-5.1V20.3L37.1 0h-32z" fill-rule="evenodd" clip-rule="evenodd" fill="#8199AF"/><g fill-rule="evenodd" clip-rule="evenodd"><path d="M56 20.4v1H43.2s-6.3-1.3-6.2-6.8c0 0 .3 5.8 6.1 5.8H56z" fill="#617F9B"/><path d="M37.1 0v14.6c0 1.6 1.1 5.8 6.1 5.8H56L37.1 0z" opacity=".5" fill="#fff"/></g><path d="M18.4 53.9h-7.5c-.4 0-.8-.3-.8-.8 0-.2.1-.4.2-.5l6.6-9.4h-6.2c-.3 0-.6-.3-.6-.7 0-.3.3-.6.6-.6h7.5c.4 0 .7.3.7.8 0 .2 0 .4-.1.5l-6.7 9.4h6.3c.4 0 .7.3.7.6 0 .4-.3.7-.7.7zm4 .1c-.4 0-.7-.3-.7-.7V42.5c0-.4.3-.7.8-.7.4 0 .7.3.7.7v10.8c0 .4-.3.7-.8.7zm8.9-4.9H28v4.2c0 .4-.4.7-.8.7s-.7-.3-.7-.7V43c0-.6.4-1.1 1-1.1h3.8c2.4 0 3.8 1.7 3.8 3.6s-1.4 3.6-3.8 3.6zm-.2-5.9H28v4.6h3.1c1.4 0 2.4-.9 2.4-2.3 0-1.3-1-2.3-2.4-2.3z" fill="#fff"/></g></svg>