<?xml version="1.0" encoding="UTF-8"?>
<svg width="301px" height="108px" viewBox="0 0 301 108" version="1.1" xmlns="http://www.w3.org/2000/svg" xmlns:xlink="http://www.w3.org/1999/xlink">
    <!-- Generator: Sketch 61 (89581) - https://sketch.com -->
    <title>invite-sent-graphic</title>
    <desc>Created with Sketch.</desc>
    <g id="Law-Office-Primary-Team-Member" stroke="none" stroke-width="1" fill="none" fill-rule="evenodd">
        <g id="My-Team-Invite-Confirm" transform="translate(-571.000000, -292.000000)">
            <g id="invite-sent-graphic" transform="translate(571.000000, 292.000000)">
                <g id="paper-plane" transform="translate(249.000000, 0.000000)" fill="#B781D3" fill-rule="nonzero">
                    <path d="M47.6,0.42 L1.25,27.16 C-0.56,28.2 -0.33,30.72 1.47,31.48 L12.1,35.94 L40.83,10.62 C41.38,10.13 42.16,10.88 41.69,11.45 L17.6,40.8 L17.6,48.85 C17.6,51.21 20.45,52.14 21.85,50.43 L28.2,42.7 L40.66,47.92 C42.08,48.52 43.7,47.63 43.96,46.1 L51.16,2.9 C51.5,0.88 49.33,-0.58 47.6,0.42 Z" id="Path"></path>
                </g>
                <path d="M0.864212866,79.3973588 C8.1473152,70.0523884 13.6104714,58.9457556 22.7135199,51.3624477 C36.4298656,39.9360259 66.9810457,44.1049297 81.8517913,50.2957963 C89.0712062,53.3013237 113.047146,61.6756237 108.527818,75.569103 C107.137358,79.8437039 104.191082,83.493469 101.397326,87.0149059 C87.1278158,105.00115 75.358344,74.4934785 85.0858394,65.2678805 C98.8273494,52.235374 128.528462,46.1777379 140.863428,65.1899516 C145.455289,72.2675102 155.211419,79.5288292 152.674523,87.5750196 L152.674523,91.9633891 C151.599546,95.3728567 146.043887,101.489371 143.634774,102.941619 C118.034626,118.373751 119.85473,73.3120563 140.040305,68.2340481 C174.570518,59.5474136 181.413521,78.1340282 206.513631,73.8108329 C214.600997,72.4178803 222.589241,70.1559598 230.189396,67.0602445 C237.579841,64.0499487 244.203604,59.4232152 251.210709,55.6047006" id="Path-2" stroke="#A8B7C7" stroke-width="2" stroke-dasharray="5"></path>
            </g>
        </g>
    </g>
</svg>